# Blender v2.78 (sub 0) OBJ File: 'portal.blend'
# www.blender.org
mtllib portal.mtl
o Cube
v 0.500000 -0.500000 -0.100000
v 0.500000 -0.500000 0.100000
v -0.500000 -0.500000 0.100000
v -0.500000 -0.500000 -0.100000
v 0.500000 0.500000 -0.100000
v 0.500000 0.500000 0.100000
v -0.500000 0.500000 0.100000
v -0.500000 0.500000 -0.100000
v 0.570711 -0.570711 -0.068853
v 0.570711 -0.570711 0.068853
v -0.570710 -0.570711 -0.068853
v 0.570711 0.570711 -0.068853
v -0.570711 -0.570711 0.068853
v 0.570710 0.570711 0.068853
v -0.570711 0.570711 0.068853
v -0.570711 0.570711 -0.068853
vn 0.0000 1.0000 0.0000
vn 0.0000 -1.0000 0.0000
vn -1.0000 0.0000 0.0000
vn 1.0000 0.0000 0.0000
vn -0.4031 -0.0000 0.9152
vn 0.4031 0.0000 0.9152
vn 0.4031 -0.0000 -0.9152
vn 0.0000 0.4031 -0.9152
vn -0.4031 0.0000 -0.9152
vn -0.0000 -0.4031 0.9152
vn 0.0000 -0.4031 -0.9152
vn -0.0000 0.4031 0.9152
usemtl Material
s off
f 4//1 2//1 1//1
f 6//2 8//2 5//2
f 2//3 5//3 1//3
f 4//4 7//4 3//4
f 10//2 11//2 9//2
f 16//1 14//1 12//1
f 12//4 10//4 9//4
f 15//3 11//3 13//3
f 15//5 3//5 7//5
f 2//6 14//6 6//6
f 5//7 9//7 1//7
f 16//8 5//8 8//8
f 11//9 8//9 4//9
f 13//10 2//10 3//10
f 1//11 11//11 4//11
f 14//12 7//12 6//12
f 4//1 3//1 2//1
f 6//2 7//2 8//2
f 2//3 6//3 5//3
f 4//4 8//4 7//4
f 10//2 13//2 11//2
f 16//1 15//1 14//1
f 12//4 14//4 10//4
f 15//3 16//3 11//3
f 15//5 13//5 3//5
f 2//6 10//6 14//6
f 5//7 12//7 9//7
f 16//8 12//8 5//8
f 11//9 16//9 8//9
f 13//10 10//10 2//10
f 1//11 9//11 11//11
f 14//12 15//12 7//12
